<svg width="559" height="652" viewBox="0 0 559 652" fill="none" xmlns="http://www.w3.org/2000/svg">
<path fill-rule="evenodd" clip-rule="evenodd" d="M278.773 225.872C278.243 225.086 277.58 224.399 276.813 223.842C276.35 223.852 275.895 223.959 275.476 224.155C275.058 224.35 274.684 224.631 274.38 224.98C274.083 225.4 274.538 226.065 274.835 226.52C275.149 227.011 275.513 227.468 275.92 227.885C276.463 228.252 277.32 227.552 277.933 227.097C278.545 226.642 279 226.327 278.773 225.872ZM276.41 226.677C276.148 226.345 275.658 225.715 275.43 225.347C275.797 224.943 276.221 224.595 276.69 224.315C276.69 224.315 277.338 225.47 277.565 225.907C277.093 226.24 276.708 226.502 276.41 226.677ZM280.103 228.917C279.893 228.672 278.195 229.337 277.688 230.055C277.39 230.475 277.828 231.14 278.143 231.612C278.444 232.107 278.809 232.56 279.228 232.96C279.323 233.034 279.439 233.077 279.56 233.082C280.12 233.082 281.713 231.84 281.958 231.56C282.039 231.483 282.094 231.383 282.116 231.273C282.138 231.163 282.125 231.05 282.08 230.947C281.545 230.16 280.876 229.473 280.103 228.917ZM279.718 231.752C279.362 231.327 279.029 230.883 278.72 230.422C279.096 230.027 279.519 229.681 279.98 229.39C279.98 229.39 280.645 230.562 280.873 231C280.33 231.35 280.015 231.577 279.718 231.752ZM289.763 242.987C293.805 240.03 288.24 234.517 285.108 238.577C284.781 239.122 284.608 239.745 284.608 240.38C284.608 241.015 284.781 241.638 285.108 242.182C285.619 242.906 286.396 243.397 287.269 243.548C288.141 243.699 289.038 243.497 289.763 242.987ZM285.738 239.75C285.948 236.67 291.093 237.597 289.99 240.852C289.806 241.372 289.433 241.804 288.946 242.062C288.459 242.321 287.893 242.387 287.359 242.249C286.825 242.11 286.363 241.777 286.063 241.314C285.762 240.852 285.647 240.294 285.738 239.75ZM279.735 225.295C279.834 225.36 279.949 225.397 280.068 225.4C280.645 225.4 282.22 224.175 282.465 223.895C282.55 223.816 282.608 223.713 282.63 223.6C282.652 223.487 282.637 223.369 282.588 223.265C282.054 222.487 281.391 221.807 280.628 221.252C280.167 221.272 279.715 221.383 279.298 221.578C278.881 221.774 278.506 222.049 278.195 222.39C277.898 222.81 278.353 223.492 278.65 223.93C278.958 224.425 279.322 224.883 279.735 225.295ZM280.505 221.795C280.505 221.795 281.153 222.95 281.38 223.387C280.75 223.825 280.47 224 280.225 224.157C279.945 223.807 279.473 223.195 279.228 222.827C279.587 222.389 280.019 222.017 280.505 221.725V221.795ZM285.773 228.97C285.853 228.892 285.907 228.791 285.926 228.681C285.944 228.571 285.928 228.457 285.878 228.357C285.348 227.571 284.685 226.884 283.918 226.327C283.457 226.347 283.005 226.458 282.588 226.653C282.171 226.849 281.796 227.124 281.485 227.465C281.188 227.885 281.66 228.585 281.94 229.022C282.258 229.505 282.621 229.957 283.025 230.37C283.126 230.434 283.239 230.476 283.358 230.492C283.953 230.51 285.51 229.25 285.773 228.97ZM283.515 229.162C283.166 228.736 282.839 228.292 282.535 227.832C282.906 227.432 283.33 227.084 283.795 226.8C283.795 226.8 284.443 227.955 284.67 228.392C284.25 228.742 283.795 229.005 283.515 229.25V229.162ZM373.5 224.262C373.308 224.402 372.31 225.137 371.365 226.012C370.42 226.887 367.41 229.775 367.165 231.087C367.148 231.327 367.184 231.568 367.272 231.792C367.36 232.017 367.497 232.218 367.673 232.382C368.128 232.872 369.93 234.412 369.93 233.677C369.886 233.552 369.814 233.438 369.72 233.345C369.18 232.829 368.715 232.24 368.338 231.595C368.023 230.965 371.418 227.745 373.85 224.595C374.113 224.367 373.763 224 373.5 224.262ZM368.705 236.442C368.46 236.792 368.215 237.51 368.705 237.562C368.705 237.562 369.143 237.055 369.685 236.985C370.718 236.985 370.665 238.542 370.648 239.592C370.648 239.89 371.05 240.012 371.12 239.715C371.595 239.057 371.807 238.246 371.715 237.44C371.365 235.97 369.423 235.357 368.705 236.442ZM369.458 226.047C369.672 226.13 369.909 226.127 370.121 226.039C370.333 225.951 370.503 225.785 370.595 225.575L371.015 224.612C371.11 224.401 371.117 224.161 371.035 223.944C370.953 223.728 370.789 223.553 370.578 223.457C370.475 223.407 370.362 223.379 370.248 223.373C370.134 223.367 370.019 223.384 369.912 223.424C369.804 223.463 369.705 223.523 369.621 223.601C369.537 223.679 369.47 223.773 369.423 223.877L368.985 224.892C368.939 224.999 368.915 225.114 368.914 225.23C368.913 225.346 368.935 225.461 368.979 225.569C369.023 225.676 369.088 225.774 369.17 225.856C369.253 225.938 369.35 226.003 369.458 226.047ZM376.108 229.635C376.245 229.718 376.402 229.761 376.563 229.757C377.403 229.757 377.315 229.005 377.77 228.62C377.947 228.469 378.056 228.254 378.074 228.023C378.092 227.791 378.017 227.562 377.866 227.386C377.716 227.21 377.501 227.1 377.269 227.082C377.038 227.064 376.809 227.139 376.633 227.29C375.985 227.832 375.25 229.11 376.108 229.635ZM250.178 185.675C261.85 186.427 289.675 184.992 289.675 183.627C289.518 121.852 289.885 125.055 289.168 124.915C277.268 122.71 272.665 121.765 264.563 122.85C253.52 124.355 249.408 127.295 231.313 127.697C220.813 127.942 221.093 127.452 221.005 127.872C220.708 129.272 220.445 189.017 221.513 190.12C223.543 192.167 240.815 185.062 250.178 185.675ZM221.425 128.1C228.094 128.375 234.773 128.258 241.428 127.75C253.835 126.647 263.023 122.307 274.678 123.462C277.513 123.742 285.738 125.212 288.573 125.807V183.102C286.315 183.347 276.48 184.345 265.823 184.695C248.585 185.272 250.86 183.645 241.533 185.43C233.623 186.935 224.033 190.067 222.283 189.42C221.583 185.587 221.25 130.76 221.425 128.1Z" fill="black"/>
<path fill-rule="evenodd" clip-rule="evenodd" d="M244.245 171.832C247.745 171.22 271.09 157.692 272.595 154.577C272.694 154.436 272.747 154.268 272.747 154.096C272.747 153.924 272.694 153.756 272.595 153.615C270.845 151.725 245.61 139.615 242.74 139.527C240.99 139.527 241.9 168.035 243.195 171.237C243.264 171.45 243.41 171.629 243.604 171.739C243.799 171.849 244.028 171.882 244.245 171.832ZM242.67 140C245.435 140.157 269.235 152.355 271.545 154.21C269.008 157.5 248.008 169.872 244 170.8C241.865 164.5 242.845 140 242.67 140ZM180.808 142.17C180.788 142.457 180.753 142.743 180.703 143.027C180.68 143.14 180.68 143.256 180.703 143.369C180.727 143.482 180.772 143.588 180.837 143.683C180.903 143.778 180.987 143.858 181.084 143.92C181.181 143.982 181.289 144.023 181.403 144.042C181.628 144.084 181.86 144.035 182.049 143.908C182.239 143.78 182.371 143.584 182.418 143.36C182.488 143.013 182.535 142.662 182.558 142.31C182.567 142.195 182.553 142.079 182.518 141.97C182.482 141.86 182.426 141.758 182.351 141.671C182.276 141.583 182.185 141.511 182.082 141.458C181.98 141.406 181.868 141.374 181.753 141.365C181.638 141.356 181.522 141.369 181.413 141.405C181.303 141.44 181.201 141.497 181.114 141.572C181.026 141.646 180.954 141.738 180.901 141.84C180.849 141.943 180.817 142.055 180.808 142.17ZM181.175 151.567C181.175 151.567 179.548 150.255 179.425 150.115C179.218 149.989 179.025 149.843 178.848 149.677C178.848 149.327 178.078 149.24 178.533 150.5C178.848 151.375 180.528 152.477 181.315 151.987C181.371 151.969 181.417 151.929 181.443 151.876C181.469 151.824 181.474 151.763 181.455 151.707C181.437 151.652 181.397 151.605 181.344 151.579C181.292 151.553 181.231 151.549 181.175 151.567Z" fill="black"/>
<path fill-rule="evenodd" clip-rule="evenodd" d="M199.043 230.685C200.355 229.652 198.36 223.335 195.858 215.81C207.46 219.957 217.103 221.76 229.108 219.415C231.313 219.765 233.448 220.062 235.443 220.29C235.793 220.29 236.213 219.835 236.773 218.82C238.545 219.998 240.679 220.507 242.793 220.255C244.403 219.8 249.793 217.017 250.248 215.6C250.304 215.461 250.332 215.312 250.329 215.163C250.327 215.013 250.295 214.865 250.234 214.728C250.174 214.591 250.087 214.467 249.978 214.365C249.869 214.262 249.74 214.182 249.6 214.13C254.5 212.968 259.468 212.115 264.475 211.575C279.403 209.93 306.58 214.847 316.24 214.2C329.715 213.272 357.523 200.2 358.678 197.085C359.623 194.565 364.54 92.9599 360.55 86.8349C360.397 86.5942 360.175 86.4052 359.912 86.2928C359.65 86.1804 359.36 86.1498 359.08 86.2049C353.428 86.3624 325.218 96.8099 314.7 97.3174C302.048 97.9999 277.653 92.5749 262.533 94.2374C240.675 96.6699 230.998 103.6 215.563 103.25C196.908 102.742 182.313 91.6824 164.358 89.3899C153.21 87.9724 137.88 88.1299 128.133 91.9624C127.075 92.2887 126.106 92.8512 125.298 93.6074C123.933 95.5149 124.545 141.487 124.563 143.307C123.933 141.977 122.813 142.397 122.2 143.762C120.993 146.702 121.36 154.157 121.308 155.12C120.558 157.338 119.921 159.592 119.4 161.875H117.65C117.571 161.875 117.495 161.901 117.432 161.948C117.369 161.996 117.323 162.062 117.3 162.137C113.8 172.742 109.128 194.6 116.985 202.65C119.471 205.373 122.822 207.153 126.47 207.69C126.52 208.708 126.709 209.715 127.03 210.682C127.8 211.907 130.53 210.875 135.255 209.44C133.48 213.984 131.938 218.616 130.635 223.317C130.11 225.067 127.415 235.462 127.993 236.617C128.57 237.772 130.355 237.912 131.493 238.192C128.16 259.417 127.496 280.975 129.515 302.365C129.603 303.292 130.548 304.115 132.158 304.64C131.825 321.825 134.713 353.5 135.5 354.392C135.764 354.573 136.061 354.698 136.375 354.76C136.375 356.265 136.288 358.872 136.375 360.745C136.343 360.847 136.343 360.957 136.375 361.06C136.36 361.7 136.492 362.334 136.76 362.915C138.3 364.892 151.18 364.927 151.828 364.42C152.069 364.261 152.268 364.044 152.405 363.789C152.543 363.533 152.615 363.248 152.615 362.959C152.615 362.669 152.543 362.384 152.405 362.129C152.268 361.874 152.069 361.657 151.828 361.497C150.969 360.967 150.06 360.522 149.115 360.167C147.578 359.571 145.974 359.165 144.338 358.96C144.338 357.927 144.338 356.457 144.478 355.267C144.66 355.277 144.84 355.223 144.987 355.114C145.134 355.006 145.238 354.85 145.283 354.672C146.263 351.977 152.965 319.375 155.328 306.652C161.33 306.652 167.77 306.302 173.86 305.865C175.085 324.922 179.6 351.872 180.23 352.45C180.524 352.63 180.852 352.749 181.193 352.8V357.402C181.158 357.505 181.158 357.615 181.193 357.717C181.177 358.357 181.309 358.992 181.578 359.572C183.1 361.55 195.98 361.585 196.645 361.077C196.887 360.918 197.086 360.701 197.223 360.446C197.36 360.191 197.432 359.906 197.432 359.616C197.432 359.326 197.36 359.041 197.223 358.786C197.086 358.531 196.887 358.314 196.645 358.155C195.79 357.618 194.881 357.172 193.933 356.825C192.394 356.232 190.79 355.827 189.155 355.617V353.027C189.298 352.996 189.433 352.935 189.551 352.847C189.669 352.76 189.766 352.648 189.838 352.52C191.92 347.427 195.088 317.677 195.088 303.52C197.433 303.1 204.065 301.875 205.395 300.02C207.25 297.202 201.213 259 196.75 232.312C197.545 231.814 198.31 231.271 199.043 230.685ZM235.408 219.415C222.405 217.805 202.875 213.657 192.515 205.712C187.755 190.575 188.578 186.06 190.94 169.645C197.03 175.227 201.44 181.737 205.36 186.462C207.95 189.525 236.143 210.315 238.855 212.817C237.825 215.077 236.675 217.279 235.408 219.415ZM155.013 124.722C155.51 125.332 156.186 125.771 156.945 125.978C157.704 126.185 158.509 126.15 159.248 125.877C159.073 126.682 159.073 126.892 159.248 127.19C157.873 127.931 156.678 128.964 155.748 130.217C153.753 133.49 154.05 133 154.19 134.75C153.607 135.137 153.123 135.655 152.777 136.263C152.431 136.871 152.231 137.551 152.195 138.25C152.059 139.416 152.1 140.596 152.318 141.75C152.453 142.494 152.752 143.2 153.193 143.815C153.522 144.291 153.948 144.692 154.442 144.994C154.937 145.295 155.489 145.49 156.063 145.565C155.936 146.318 155.936 147.087 156.063 147.84C156.598 150.068 157.823 152.071 159.563 153.562C160.237 154.108 161.06 154.438 161.924 154.51C162.789 154.582 163.655 154.392 164.41 153.965C164.235 154.91 163.955 156.362 163.693 157.867C162.289 157.865 160.887 157.941 159.493 158.095C158.11 156.712 147.4 158.305 147.4 161.875C143.418 164.051 139.832 166.885 136.795 170.257C135.885 151.707 134.835 118.492 134.695 118.422C136.445 117.635 147.208 116.865 157.9 117.985C157.262 118.23 156.679 118.6 156.187 119.074C155.694 119.547 155.302 120.115 155.032 120.743C154.763 121.372 154.623 122.047 154.619 122.731C154.616 123.414 154.75 124.092 155.013 124.722ZM175.365 123.34C173.265 124.18 162.993 127.05 160.455 126.997C160.123 126.525 160.14 126.735 160.333 125.982C169.275 124.81 173.493 120.05 175.365 123.34ZM185.13 140.84C185.27 141.96 186.618 146.282 186.74 147.507C186.338 147.805 185.165 147.927 184.85 148.242C184.528 149.131 184.339 150.063 184.29 151.007C183.748 154.262 181.035 155.05 177.745 155.19C176.45 155.19 176.87 155.19 176.328 160.177C172.624 158.862 168.74 158.124 164.813 157.99C165.145 156.135 165.373 154.962 165.513 154.192C165.65 154.449 165.883 154.642 166.161 154.73C166.438 154.819 166.739 154.795 167 154.665C168.26 154.017 167.945 152.687 167.42 151.392C166.318 148.68 167.018 147.612 166.423 147.28C165.623 146.814 164.95 146.159 164.463 145.372C163.483 143.622 164.463 141.872 165.583 141.872C167.7 141.872 167.805 144.077 168.4 145.372C169.275 147.385 171.533 145.092 171.27 140.875C171.585 140.665 172.898 140.77 173.51 140.35C174.123 139.93 174.455 138.757 174.945 138.18C175.654 138.469 176.42 138.587 177.183 138.527C177.946 138.466 178.684 138.227 179.338 137.83C179.674 137.588 179.953 137.274 180.153 136.911C180.353 136.547 180.469 136.144 180.493 135.73C180.847 135.969 181.257 136.114 181.683 136.15C182.579 136.123 183.431 135.754 184.063 135.117C184.55 135.501 185.001 135.928 185.41 136.395C186.04 139.475 185.008 139.842 185.13 140.822V140.84ZM152.353 158.935C154.44 158.486 156.589 158.403 158.705 158.69C159.683 160.765 161.39 162.41 163.5 163.31C159.825 165.882 151.933 164.5 152.353 158.935ZM159.755 158.637C166.641 157.921 173.591 159.133 179.828 162.137C175.295 165.357 169.923 164.727 164.743 162.68C162.649 161.975 160.879 160.54 159.755 158.637ZM177.378 160.545C177.535 159.145 177.658 157.657 177.78 156.24C181.613 156.047 184.675 154.945 185.288 151.147C185.288 150.71 185.498 149.397 185.585 148.907C188.018 148.067 187.983 148.347 187.195 145.407C187.195 145.582 186.005 141.4 185.9 140.525C186.129 140.04 186.272 139.519 186.32 138.985C186.758 139.23 187.283 138.722 187.528 137.97C188.228 135.712 186.53 134.995 186.548 134.19C186.754 133.178 186.7 132.13 186.39 131.145C186.25 130.297 185.925 129.491 185.438 128.783C184.951 128.075 184.314 127.483 183.573 127.05C183.258 126.892 182.365 126.56 182.295 126.49C181.683 125.86 181.613 124.145 178.428 123.55C177.588 123.392 176.678 123.55 176.31 123.392C176.095 122.794 175.689 122.284 175.155 121.94C174.175 121.31 174.053 121.73 174.42 121.327C184.273 123.69 197.17 127.015 203.733 128.747C203.645 132.79 202.893 164.692 201.86 181.125C198.614 176.787 194.989 172.746 191.028 169.05C191.483 165.917 182.873 159.845 180.283 161.822C179.338 161.332 178.358 161 177.378 160.545ZM190.17 168.665C189.715 171.185 189.418 172.602 188.91 176.067C187.593 176.232 186.256 176.028 185.048 175.478C183.84 174.928 182.808 174.054 182.068 172.952C181.621 171.241 181.79 169.427 182.545 167.828C183.3 166.229 184.593 164.945 186.198 164.202C188.385 165.637 190.345 167.615 190.17 168.665ZM191.5 206.5C187.51 207.9 181.385 206.08 181.858 201.337C181.903 199.588 182.625 197.925 183.872 196.698C185.119 195.471 186.793 194.775 188.543 194.757C189.311 198.723 190.299 202.643 191.5 206.5ZM241.358 205.17C241.48 205.905 241.865 209.387 241.883 210.42C241.883 210.7 241.883 210.595 241.638 210.665C240.922 210.844 240.198 210.984 239.468 211.085C239.153 209.44 239.083 208.792 238.593 206.255C240.833 205.292 241.025 205.292 241.41 205.152L241.358 205.17ZM248.813 215.67C246.893 217.195 244.766 218.438 242.495 219.362C240.611 219.621 238.695 219.258 237.035 218.33C237.473 217.49 237.998 216.387 238.645 215.04C239.17 215.197 239.555 215.04 240.15 214.585C241.235 213.815 243.23 212.432 242.548 213.727C242.058 214.655 241.2 215.32 241.463 215.95C241.725 216.58 242.565 216.37 243.213 216.282C244.922 216.002 246.611 215.61 248.27 215.11C248.55 215.022 249.758 214.865 248.865 215.652L248.813 215.67ZM256.373 207.427C256.373 207.707 256.373 207.602 256.11 207.655C255.381 207.774 254.644 207.845 253.905 207.865C253.748 206.255 253.695 205.135 253.468 203C254.399 202.699 255.345 202.448 256.303 202.247C256.425 203 256.478 206.5 256.425 207.41L256.373 207.427ZM272 206.22C272 206.5 272 206.395 271.72 206.43C270.986 206.474 270.249 206.474 269.515 206.43V201.547C271.895 201.075 272.105 201.11 272.403 201.057C272.49 201.845 272.228 205.275 272 206.22ZM288.608 207.375C288.608 207.637 288.608 207.55 288.293 207.532C287.559 207.498 286.828 207.416 286.105 207.287C286.21 206.237 286.525 204.155 286.7 202.44C289.063 202.247 289.115 202.317 289.64 202.282C289.605 203 288.94 206.5 288.678 207.375H288.608ZM322.89 207.865C322.89 208.127 322.89 208.04 322.61 208.075C321.878 208.152 321.142 208.187 320.405 208.18C320.405 206.64 320.405 205.607 320.213 203.297C322.838 202.65 322.645 202.772 323.083 202.667C323.17 203.472 323.065 206.885 322.96 207.865H322.89ZM338.115 203.682C338.115 203.962 338.115 203.857 337.853 203.91C337.13 204.05 336.399 204.149 335.665 204.207C335.543 203.385 335.333 201.32 335.053 199.342C337.398 198.572 337.59 198.59 337.87 198.485C338.028 199.237 338.22 202.702 338.185 203.682H338.115ZM350.873 197.942C350.873 198.135 350.873 198.065 350.663 198.1C350.015 198.225 349.361 198.306 348.703 198.345C348.51 196.927 348.493 196.297 348.195 194.075C349.019 193.772 349.86 193.52 350.715 193.322C350.855 194.04 350.978 197.102 350.943 197.942H350.873ZM359.238 171.5C348.248 176.75 343.803 182.367 329.89 184.887C323.909 186.079 317.74 185.953 311.813 184.52C310.5 178.815 310.763 128.52 310.885 126.665C327.405 129.115 360.795 116.795 360.97 116.742C360.778 133.805 360.008 155.12 359.238 171.5ZM125 107.45C132.315 106.435 144.023 103.075 157.008 104.282C176.258 106.032 190.59 116.007 210.733 117.635C233.028 119.385 242.005 112.035 265.42 110.285C281.468 109.077 302.643 113.89 315.645 113.977C326.25 113.977 350.925 107.957 361.145 105.84V116.217C360.97 116.217 324.675 128.817 310.675 125.527C310.675 125.527 310.098 125.527 310.063 126.035C309.94 128.047 309.415 181.93 311.095 185.097C311.141 185.189 311.205 185.271 311.283 185.337C311.361 185.403 311.452 185.453 311.55 185.482C317.674 186.996 324.057 187.133 330.24 185.885C344.083 183.365 348.808 177.747 359.343 172.585C359.08 177.835 358.835 182.612 358.608 186.462C346.358 191.362 332.008 197.277 318.533 198.362C308.26 199.202 279.21 195.107 263.11 196.297C245.61 197.61 237.263 201.162 227.183 202.667C205.29 186.252 206.708 187.25 202.893 182.35C203.925 166.6 204.643 134.907 204.783 128.31C204.786 128.194 204.75 128.081 204.68 127.988C204.61 127.896 204.51 127.83 204.398 127.802C196.75 125.807 185.48 123.025 174.928 120.522C175.126 120.141 175.194 119.704 175.12 119.28C175.033 118.738 174.795 118.232 174.433 117.82C174.07 117.408 173.599 117.107 173.073 116.952C173.261 116.667 173.361 116.332 173.361 115.99C173.361 115.648 173.261 115.313 173.073 115.027C172.688 114.429 172.112 113.977 171.439 113.745C170.766 113.513 170.035 113.515 169.363 113.75C166.528 109.987 159.913 112.332 158.565 115.727C157.218 119.122 162.223 116.865 146.665 117.04C144.425 117.04 135.833 117.355 134.415 118.282C134.188 118.422 135.78 166.827 135.99 171.395C134.414 173.2 132.997 175.138 131.755 177.187C131.243 172.052 130.151 166.992 128.5 162.102C128.5 161.98 128.5 161.91 127.853 161.875C127.44 159.851 127.136 157.806 126.943 155.75C130.933 151.585 129.603 149.747 127.87 150.29C127.11 150.675 126.32 150.997 125.508 151.252C125 140.455 124.878 117.582 125 107.45ZM122.078 155.47C122.2 155.295 122.62 141.382 123.635 143.797C124.405 145.652 124.318 151.27 124.493 151.602C125.333 153.352 127.573 151.2 128.483 151.165C128.938 151.742 126.733 154.49 126.19 155.12C125.648 155.75 126.19 156.642 127.275 161.857H119.978C120.695 159.512 121.745 156.135 122.078 155.47ZM127.555 206.85C123.774 206.578 120.247 204.846 117.72 202.02C110.143 194.337 114.78 172.865 118 162.627H127.923C129.583 167.675 130.669 172.894 131.16 178.185C131.169 178.256 131.2 178.323 131.25 178.375C131.299 178.428 131.365 178.462 131.436 178.474C131.507 178.486 131.58 178.474 131.644 178.441C131.708 178.408 131.759 178.355 131.79 178.29C135.535 171.724 140.975 166.285 147.54 162.54C148.12 173.517 146.23 184.485 142.01 194.635C139.263 201.022 137.67 207.322 127.555 206.85ZM144.705 189.122C146.138 189.229 147.502 189.78 148.607 190.699C149.711 191.619 150.501 192.86 150.865 194.25C152.755 200.812 145.003 203 140.523 200.48C142.127 196.775 143.523 192.983 144.705 189.122ZM134.205 215.022C141.205 217.385 140.593 228.707 130.705 226.905C131.668 223.51 132.63 219.957 134.275 215.022H134.205ZM129.025 236.25C129.292 233.458 129.801 230.694 130.548 227.99C141.52 230.212 143.025 217.017 134.433 214.62C135.932 210.028 137.78 205.559 139.963 201.25C142.065 202.405 144.519 202.748 146.858 202.212C155.748 200.182 152.37 188.685 144.845 188.615C147.525 180.025 148.552 171.005 147.873 162.032C147.785 160.597 149.623 159.6 151.88 158.987C151.821 159.487 151.821 159.992 151.88 160.492C152.248 165.252 160.63 167.492 164.918 163.555C168.221 164.771 171.76 165.208 175.26 164.832C177.344 164.473 179.302 163.587 180.948 162.26C181.753 161.647 183.8 162.47 185.778 163.73C184.071 164.358 182.664 165.608 181.84 167.23C181.314 168.15 180.983 169.169 180.868 170.223C180.754 171.277 180.858 172.343 181.175 173.355C181.991 174.646 183.155 175.68 184.532 176.339C185.91 176.999 187.445 177.256 188.963 177.082C188.095 182.54 187.942 188.088 188.508 193.585C187.225 193.549 185.958 193.867 184.844 194.502C183.73 195.138 182.812 196.068 182.19 197.19C177.728 204.697 185.358 209.597 191.92 206.78C194.02 213.185 199.06 227.972 198.413 229.757C196.254 231.628 193.76 233.071 191.063 234.01C190.868 232.799 190.38 231.654 189.64 230.675C188.9 229.696 187.932 228.913 186.82 228.395C185.708 227.877 184.486 227.64 183.261 227.703C182.036 227.767 180.845 228.13 179.793 228.76C176.415 230.965 175.663 235.952 176.713 237.877C170.53 238.884 164.285 239.469 158.023 239.627C159.318 229.127 142.815 227.657 143.235 239.627C138.363 239.175 133.579 238.038 129.025 236.25ZM189.96 234.5C185.795 236 181.501 237.113 177.133 237.825V237.72C176.884 236.712 176.851 235.662 177.035 234.64C177.219 233.618 177.616 232.646 178.2 231.787C178.912 230.673 179.951 229.806 181.176 229.306C182.4 228.806 183.749 228.698 185.037 228.995C186.326 229.292 187.49 229.981 188.372 230.966C189.253 231.952 189.808 233.186 189.96 234.5ZM156.868 239.645C152.843 239.645 148.45 239.645 143.655 239.54C143.594 237.73 144.215 235.963 145.395 234.589C146.574 233.215 148.227 232.334 150.025 232.12C150.99 232.095 151.949 232.279 152.836 232.658C153.723 233.037 154.519 233.603 155.168 234.317C155.817 235.031 156.305 235.876 156.598 236.796C156.892 237.715 156.984 238.687 156.868 239.645ZM147.418 360.622C147.348 360.776 147.24 360.909 147.103 361.007C143.811 361.046 140.52 360.877 137.25 360.5C137.11 358.75 136.988 356.335 136.9 354.83C139.185 355.194 141.5 355.341 143.813 355.267C143.288 359.782 143.41 359.52 143.988 359.695C146.14 360.5 145.843 360.045 147.418 360.622ZM144.25 354.2C141.623 354.301 138.994 354.107 136.41 353.622C135.36 346.622 132.77 318.465 132.788 304.832C137.11 306.232 145.37 306.74 154.698 306.582C151.898 319.497 145.003 351.942 144.25 354.2ZM192.2 357.28C192.126 357.431 192.018 357.562 191.885 357.665C188.594 357.715 185.304 357.557 182.033 357.192C181.928 355.95 181.84 354.305 181.77 352.922C183.986 353.279 186.237 353.362 188.473 353.167C188.123 356.317 188.193 356.195 188.77 356.387C190.835 357 190.59 356.702 192.165 357.28H192.2ZM188.823 352.03C186.214 352.369 183.566 352.244 181 351.662C179.828 346.885 175.75 321.755 174.42 305.865C182.26 305.305 189.505 304.482 194.51 303.642C194.16 317.537 190.555 347.34 188.788 351.977L188.823 352.03ZM204.573 299.32C200.705 304.885 131.405 308.665 130.758 302.33C128.744 281.071 129.379 259.645 132.648 238.542C147.768 242.987 181.473 241.272 195.858 232.96C200.25 259.735 206.043 296.992 204.468 299.25L204.573 299.32Z" fill="black"/>
<path fill-rule="evenodd" clip-rule="evenodd" d="M170.01 216.807C170.161 215.675 170.058 214.523 169.706 213.436C169.355 212.349 168.765 211.355 167.98 210.525C167.217 209.661 166.255 208.996 165.177 208.586C164.1 208.176 162.939 208.034 161.794 208.172C160.65 208.309 159.556 208.723 158.606 209.377C157.657 210.03 156.88 210.905 156.343 211.925C155.752 212.886 155.376 213.964 155.24 215.085C155.104 216.206 155.211 217.342 155.555 218.417C158.355 223.755 169.065 223.3 170.01 216.807ZM157.095 212.345C157.565 211.445 158.248 210.673 159.083 210.095C159.919 209.518 160.883 209.154 161.891 209.033C162.899 208.912 163.922 209.039 164.87 209.403C165.818 209.767 166.664 210.356 167.333 211.12C168.021 211.858 168.535 212.741 168.838 213.704C169.14 214.667 169.224 215.685 169.083 216.685C168.278 222.267 158.723 222.67 156.29 217.997C156.027 217.051 155.963 216.06 156.102 215.087C156.24 214.114 156.578 213.18 157.095 212.345ZM175.89 184.852C176.052 183.709 175.954 182.544 175.602 181.444C175.251 180.344 174.655 179.337 173.86 178.5C173.098 177.636 172.137 176.969 171.06 176.558C169.984 176.147 168.823 176.003 167.679 176.139C166.534 176.275 165.44 176.687 164.49 177.339C163.539 177.991 162.761 178.863 162.223 179.882C156.028 191.065 174.63 193.637 175.89 184.852ZM162.975 180.39C163.445 179.49 164.128 178.718 164.963 178.14C165.799 177.563 166.763 177.199 167.771 177.078C168.779 176.957 169.802 177.084 170.75 177.448C171.698 177.812 172.544 178.401 173.213 179.165C173.904 179.901 174.42 180.784 174.723 181.747C175.026 182.711 175.108 183.73 174.963 184.73C174.158 190.312 164.603 190.697 162.17 186.042C161.907 185.096 161.843 184.105 161.982 183.132C162.12 182.159 162.458 181.225 162.975 180.39ZM399.33 261.52C395.915 259.12 392.283 257.046 388.48 255.325C388.743 253.225 389.723 241.045 389.005 239.942C388.778 239.61 388.725 239.942 389.005 239.277C389.564 239.674 390.209 239.933 390.887 240.033C391.566 240.133 392.258 240.072 392.908 239.855C393.516 240.668 394.415 241.214 395.417 241.377C396.419 241.54 397.446 241.308 398.28 240.73C400.923 239.33 405.508 233.87 404.125 230.002C403.6 228.55 403.215 229.477 404.668 228.48C405.832 227.469 406.733 226.189 407.293 224.752C408.005 223.401 408.297 221.868 408.132 220.349C407.967 218.831 407.351 217.396 406.365 216.23C404.915 214.459 402.912 213.227 400.678 212.73C399.981 212.539 399.274 212.387 398.56 212.275C398.175 209.965 399.908 205.782 393.555 202.335C391.553 201.383 389.264 201.226 387.15 201.897C384.735 202.58 385.4 203.647 384.963 202.37C383.055 197.382 376.72 193.83 372.433 196.437C371.204 197.164 370.159 198.164 369.379 199.36C368.599 200.555 368.105 201.915 367.935 203.332C367.993 204.79 368.351 206.219 368.985 207.532C361.635 208.46 362.738 219.257 369.125 218.995C367.803 222.015 366.737 225.141 365.94 228.34C365.188 232.26 364.628 236.67 366.448 240.24C367.239 241.666 368.343 242.895 369.676 243.835C371.01 244.774 372.538 245.4 374.148 245.665C373.273 247.327 372.398 248.99 371.82 250.267C357.593 247.415 326.6 255.692 323.678 258.23C323.153 258.685 323.38 259.087 323.678 259.98C321.638 260.556 319.57 261.029 317.483 261.397C310.789 253.38 303.392 245.977 295.38 239.277C295.59 235.34 292.703 230.807 289.483 229.95C285.983 224.367 281.993 218.802 280.995 218.207C279.998 217.612 271.79 222.932 271.265 224C271.09 224.332 271.265 224.612 271.545 225.19C273.19 228.357 280.733 240.73 284.11 245.542C286.882 252.31 290.274 258.807 294.243 264.95C293.103 265.086 291.975 265.303 290.865 265.597C277.775 268.975 266.26 277.357 257.02 286.492C246.363 296.992 236.598 311.185 233.22 318.115C233.045 318.447 232.905 318.71 233.063 319.007C233.463 319.767 233.907 320.504 234.393 321.212L233.36 322.717C230.333 320.39 220.69 313.442 217.61 315.84C214.845 316.977 213.095 317.24 216.875 323.925C219.29 328.16 225.905 335.387 230.123 337.47C232.853 338.8 234.375 336.21 233.868 335.177C236.451 333.775 238.854 332.065 241.025 330.085L242.775 332.272C242.88 332.388 243.023 332.461 243.178 332.478C243.334 332.494 243.489 332.452 243.615 332.36C264.248 316.61 289.255 296.747 291.46 297.745C295.538 299.6 310.395 323.33 315.19 326.9C315.244 326.937 315.28 326.994 315.292 327.058C315.303 327.122 315.289 327.188 315.251 327.241C315.214 327.294 315.158 327.331 315.094 327.342C315.03 327.354 314.964 327.339 314.91 327.302C309.38 323.505 294.348 300.597 291.04 298.882C288.135 299.74 279.018 306.915 262.568 318.622C254.273 343.122 251.333 373.835 252.068 375.795C252.225 376.162 252.995 376.6 254.115 377.055C253.905 378.962 253.695 380.922 253.538 382.62C250.3 384.685 240.325 391.527 241.585 395.185C241.708 398.09 241.305 399.91 248.953 398.685C253.73 397.862 258.84 395.185 262.953 392.892C263.635 392.525 263.88 389.9 263.915 388.5C264.879 385.823 265.468 383.026 265.665 380.187C266.807 380.493 268.001 380.547 269.165 380.345C269.97 379.942 272.893 374.885 276.585 367.972C273.085 381.64 268.955 400.05 270.338 401.747C270.76 402.329 271.369 402.748 272.063 402.936C272.757 403.124 273.494 403.069 274.153 402.78C276.165 401.922 285.843 368.025 288.345 357.875C295.66 359.625 308.4 362.67 322.558 365.907C316.153 388.412 310.745 411.057 311.9 412.545C312.307 413.126 312.903 413.547 313.587 413.736C314.27 413.924 314.998 413.868 315.645 413.577C316.625 413.157 324.395 390.18 332.078 368.077C353.078 372.802 375.058 377.475 386.083 378.997C387.833 393.33 391.035 416.062 393.083 417.287C393.683 417.686 394.403 417.865 395.12 417.795C395.837 417.725 396.508 417.41 397.02 416.902C398.228 415.695 396.32 392.402 394.798 377.877C400.888 371.857 412.963 352.047 423.305 333.725C425.598 355.74 431.793 408.975 434.12 413.087C434.41 413.426 434.779 413.689 435.193 413.854C435.608 414.019 436.057 414.08 436.5 414.032C437.232 413.988 437.919 413.669 438.425 413.14C440.018 411.565 433.175 340.34 431.11 325.5C434.978 325.36 438.11 325.202 440.175 324.992C442.818 324.73 443.36 317.765 440.945 317.03C438.405 316.364 435.811 315.925 433.193 315.717C437.533 307.545 440.613 301.315 441.295 299.32C441.435 298.9 441.558 298.445 441.295 298.147C440.403 297.556 439.446 297.068 438.443 296.695C442.45 288.172 445.058 282.345 445.163 281.977C447 275.03 406.243 263.515 399.33 261.52ZM227.603 320.005C226.549 322.374 225.24 324.621 223.7 326.707L221.95 324.607C223.563 322.936 224.61 320.799 224.943 318.5C225.835 318.99 226.728 319.497 227.603 320.005ZM223.998 318.062C223.645 320.151 222.69 322.091 221.25 323.645C216.42 317.222 216.998 314.65 223.998 318.062ZM230.543 336.892C226.85 334.897 218.45 325.972 216.333 319.952C216.193 319.567 215.808 318.325 216.088 318.045C216.339 317.846 216.616 317.681 216.91 317.555C216.805 319.795 219.343 323.207 220.725 324.94C223.298 328.142 228.46 334.372 232.59 335.44C232.879 335.5 233.177 335.5 233.465 335.44C233.833 336 232.625 338.03 230.543 336.892ZM232.87 334.425C230.613 333.812 227.34 330.802 224.47 327.6C226.08 325.369 227.304 322.885 228.093 320.25C230.403 321.632 232.415 323.015 233.22 323.627C233.264 323.66 233.315 323.683 233.368 323.696C233.422 323.708 233.478 323.71 233.532 323.7C233.586 323.69 233.637 323.669 233.683 323.639C233.729 323.608 233.768 323.568 233.798 323.522C233.798 323.522 234.235 322.787 234.813 321.877C236.563 324.292 238.82 327.302 240.693 329.612C237.753 331.8 233.903 334.722 232.87 334.425ZM248.97 387.345C250.829 389.132 252.49 391.116 253.923 393.26L251.35 394.135C250.331 392.088 248.697 390.411 246.678 389.34C247.5 388.587 248.288 387.905 248.97 387.345ZM245.925 390.04C247.738 391.107 249.216 392.658 250.195 394.52C242.828 396.847 240.15 395.64 245.925 390.04ZM262.795 392.245C257.213 394.87 250.86 397.95 245.05 397.897C244.665 397.897 243.3 397.897 243.178 397.477C243.078 397.177 243.019 396.865 243.003 396.55C245.54 397.582 251 395.552 253.625 394.625C256.653 393.592 261.308 391.79 263.53 389.375C263.431 390.363 263.183 391.33 262.795 392.245ZM263.198 388.08C261.763 390.075 257.948 391.79 255.043 392.857C253.484 390.62 251.589 388.637 249.425 386.977C254.255 383.127 254.483 383.477 254.518 382.987C254.518 382.987 254.675 380.222 254.885 377.37C258.242 378.488 261.668 379.388 265.14 380.065C264.876 382.81 264.24 385.506 263.25 388.08H263.198ZM427.698 271.39C424.688 270.97 422.098 271.39 420.785 272.807C420.173 273.507 418.335 276.307 415.71 280.525C412.119 273.648 407.115 267.607 401.028 262.797C411.178 265.667 420.75 268.747 427.75 271.39H427.698ZM371.838 251.177C372.205 251.177 371.838 251.177 374.76 245.63C375.075 244.982 373.01 245.42 370.175 243.477C365.188 240.152 365.59 234.395 366.815 228.532C367.705 225.196 368.876 221.941 370.315 218.802C371.845 218.172 373.228 217.23 374.375 216.037C383.038 220.482 386.363 219.537 387.903 220.167C387.557 221.015 387.104 221.814 386.555 222.547C386.555 222.547 387.465 228.375 386.153 231.07C385.61 232.172 387.623 232.732 388.55 232.155C389.006 231.804 389.423 231.405 389.793 230.965C393.048 230.44 393.293 232.067 391.7 234.115C389.723 236.582 388.358 236.687 388.2 237.895C388.113 238.805 386.293 240.52 387.868 240.747C387.964 245.717 387.719 250.687 387.133 255.622C387.114 255.751 387.138 255.882 387.202 255.996C387.265 256.11 387.364 256.2 387.483 256.252C388.533 256.69 389.653 257.197 390.738 257.74C385.925 264.267 379.695 270.462 371.488 268.52C363.28 266.577 364.365 258.195 368.233 250.705C369.443 250.786 370.647 250.944 371.838 251.177ZM367.463 250.88C365.923 253.89 363.84 259.14 364.75 263.357C365.8 268.17 370.49 270.042 375.25 269.85C381.375 269.605 385.155 266.227 388.918 262.027C390.038 260.75 391.158 259.42 392.033 258.212C411.405 268.152 421.223 291.725 420.925 296.17C417.425 298.2 396.793 298.462 392.68 298.515C391.529 294.263 390.641 289.944 390.02 285.582C390.02 285.517 389.994 285.455 389.949 285.409C389.903 285.363 389.84 285.337 389.775 285.337C389.71 285.337 389.648 285.363 389.602 285.409C389.556 285.455 389.53 285.517 389.53 285.582C389.998 290.142 390.764 294.667 391.823 299.127C391.963 299.687 392.645 299.53 394.903 299.53L395.218 300.282C382.705 301.735 375.495 302.032 365.17 307.142C359.203 301.227 353.533 295.347 344.695 287.892C341.32 284.793 337.703 281.967 333.88 279.44C337.122 274.333 340.811 269.525 344.905 265.072C345.15 264.862 344.818 264.495 344.573 264.705C339.859 268.639 335.949 273.446 333.058 278.862C331.413 275.187 325.883 262.622 324.745 259.035C327.738 257.145 352.5 249.97 367.463 250.88ZM381.603 342.37C384.105 337.452 387.08 331.87 390.353 326.112C399.663 326.112 409.235 325.937 417.618 325.797C413.208 333.567 408.553 341.81 404.388 349.09C396.775 346.675 389.058 344.417 381.603 342.37ZM403.723 350.14C397.405 361.165 392.33 369.81 391.245 370.965C388.34 370.965 361.268 364.805 335.333 358.89C338.833 348.915 342.053 339.832 344.328 334.005C363.35 338.52 386.205 344.522 403.723 350.14ZM382.023 326.2L389.425 326.112C388.428 327.967 387.448 329.805 386.503 331.642C385.19 330.015 383.685 328.177 382.023 326.2ZM347.74 326.2C346.13 326.48 345.99 324.835 334.16 358.697L326.093 356.842C336.05 322.647 339.62 319.777 340.093 319.777C341.598 317.66 393.503 314.737 423.13 316.085L418.248 324.695C392.225 325.045 354.25 324.922 347.74 326.13V326.2ZM416.585 314.895C392.085 314.422 357.733 316.19 344.835 318.15C339.725 317.73 344.958 314.282 349.805 313.53C353.48 312.97 357.453 313.127 358.258 312.725C362.458 310.625 364.155 305.147 395.953 301.227C396.705 301.122 396.215 300.282 395.953 299.6C403.223 299.681 410.49 299.272 417.705 298.375C418.406 302.544 418.751 306.765 418.738 310.992C418.461 312.472 417.705 313.819 416.585 314.825V314.895ZM289.71 230.895C290.455 231.111 291.149 231.475 291.751 231.965C292.352 232.455 292.848 233.061 293.21 233.747C293.842 235.09 294.221 236.537 294.33 238.017C293.228 236.145 292.423 234.622 292.195 234.412C291.583 233.8 287.103 234.202 285.93 232.662C284.758 231.122 287.908 230.37 289.71 230.825V230.895ZM272.105 224.385C274.048 222.127 280.855 218.207 280.855 218.645C281.713 219.222 285.108 224.437 288.328 229.775C285.808 229.775 283.69 231.297 285.073 233.275C286.455 235.252 289.71 235.025 291.443 235.322C292.7 237.295 293.806 239.36 294.75 241.5C293 242.497 287.505 245.787 286.228 246.417C284.11 243.932 272.665 225.645 272.105 224.385ZM295.398 264.897C291.68 259.423 288.454 253.632 285.755 247.59C286.105 247.73 286.438 247.59 286.893 247.31C288.643 246.4 294.068 243.197 295.643 242.27C296.325 241.85 295.783 240.8 295.415 239.977C305.6 248.202 316.853 262.307 317.185 262.412C319.559 262.199 321.905 261.742 324.185 261.047C325.795 265.335 329.435 273.682 331.185 277.602C318.9 269.36 306.458 263.97 295.398 264.897ZM298.6 324.712C314.35 328.125 325.62 330.522 333.6 331.555C331.133 338.187 328.245 347.095 325.41 356.597C306.895 352.362 290.778 348.67 287.068 347.97C292.878 336.367 298.058 325.85 298.6 324.712ZM273.645 401.712C273.241 401.862 272.799 401.876 272.385 401.753C271.972 401.63 271.61 401.376 271.353 401.03C270.688 398.685 275.115 378.385 278.213 365.05C279.648 362.337 281.153 359.415 282.675 356.457L287.68 357.7C285.055 367.5 275.238 399.402 273.645 401.712ZM315.155 412.632C314.749 412.783 314.305 412.796 313.891 412.669C313.477 412.543 313.116 412.284 312.863 411.932C312.6 408.432 317.553 387.292 323.363 366.1L330.905 367.85C323.8 388.657 316.573 410.095 315.155 412.632ZM396.18 416.132C395.863 416.424 395.456 416.598 395.027 416.627C394.597 416.655 394.171 416.537 393.818 416.29C392.295 414.312 388.935 392.927 386.958 379.12C392.855 379.89 393.03 379.522 393.958 378.7C395.2 392.7 396.67 413.945 396.25 416.097L396.18 416.132ZM437.55 412.405C437.238 412.673 436.847 412.831 436.436 412.856C436.026 412.882 435.618 412.772 435.275 412.545C433.245 408.94 426.525 354.007 423.953 332.762C425.318 330.33 426.648 327.932 427.925 325.605H430.62C432.178 338.992 438.075 407.557 437.55 412.37V412.405ZM440.7 318.115C441.978 318.5 441.488 323.75 440.158 323.89C437.638 324.135 433.595 324.31 428.573 324.45C430.043 321.755 431.443 319.2 432.738 316.732C435.428 316.937 438.093 317.388 440.7 318.08V318.115ZM440.263 298.865C438.513 304.885 401.553 372.715 392.558 378.35C388.865 380.677 290.708 357.822 282.903 356.037C284.215 353.5 285.545 350.91 286.823 348.355C320.073 356.037 389.723 372.995 391.718 372.015C394.01 370.877 432.44 301.262 435.573 296.905C437.183 297.427 438.75 298.07 440.263 298.83V298.865ZM444.025 281.662C441.848 286.548 439.625 291.413 437.358 296.257C436.675 295.995 436.063 295.785 435.73 295.697C435.582 295.628 435.416 295.607 435.255 295.639C435.095 295.67 434.949 295.752 434.838 295.872C434.173 296.607 429.588 304.622 423.638 315.122C421.748 315.035 419.753 314.965 417.688 314.93C418.612 313.844 419.218 312.524 419.438 311.115C419.753 309.225 418.913 302.855 418.23 298.27C420.47 297.832 421.958 297.272 422.08 296.52C422.553 294.052 417.828 284.427 416.41 281.767C419.193 277.305 421.153 274.33 421.66 273.647C425.633 269.08 444.673 278.127 444.025 281.627V281.662Z" fill="black"/>
<path d="M91.07 452.19L137.24 452.19V464.61L120.95 464.61L120.95 516H107.36L107.36 464.61H91.07L91.07 452.19ZM166.723 452.19V463.71H161.953L161.953 504.57H166.723V516H143.503V504.57H148.273V463.71H143.503V452.19H166.723ZM205.116 503.58C207.996 503.58 210.816 502.92 213.576 501.6C216.336 500.28 219.126 498.06 221.946 494.94L230.766 503.31C227.226 507.87 223.176 511.32 218.616 513.66C214.116 516 209.466 517.17 204.666 517.17C200.346 517.17 196.296 516.3 192.516 514.56C188.736 512.76 185.436 510.36 182.616 507.36C179.856 504.36 177.666 500.88 176.046 496.92C174.486 492.9 173.706 488.64 173.706 484.14C173.706 479.64 174.516 475.41 176.136 471.45C177.816 467.49 180.066 464.01 182.886 461.01C185.706 458.01 189.036 455.64 192.876 453.9C196.716 452.16 200.796 451.29 205.116 451.29C209.136 451.29 212.946 452.04 216.546 453.54C220.206 455.04 223.776 457.53 227.256 461.01L219.336 470.64C216.816 468.3 214.416 466.74 212.136 465.96C209.916 465.12 207.576 464.7 205.116 464.7C202.656 464.7 200.316 465.21 198.096 466.23C195.936 467.25 194.046 468.63 192.426 470.37C190.806 472.11 189.516 474.18 188.556 476.58C187.656 478.92 187.206 481.44 187.206 484.14C187.206 486.84 187.656 489.36 188.556 491.7C189.516 494.04 190.806 496.11 192.426 497.91C194.046 499.65 195.936 501.03 198.096 502.05C200.316 503.07 202.656 503.58 205.116 503.58ZM265.444 481.35L296.224 516H279.394L256.804 489.99L251.314 495.57V516H237.634L237.634 452.19H251.314L251.314 478.02L276.964 452.19L294.424 452.19L265.444 481.35ZM301.797 452.19H341.667V464.61H315.477V476.13H338.517V488.55H315.477V503.67H341.667V516H301.797V452.19ZM348.062 452.19H394.232V464.61H377.942L377.942 516H364.352L364.352 464.61H348.062V452.19ZM441.086 483.15C443.606 484.65 445.526 486.57 446.846 488.91C448.166 491.25 448.826 493.95 448.826 497.01C448.826 499.89 448.136 502.59 446.756 505.11C445.376 507.57 443.426 509.76 440.906 511.68C438.626 513.42 436.016 514.77 433.076 515.73C430.196 516.63 427.136 517.11 423.896 517.17C420.656 517.17 417.566 516.72 414.626 515.82C411.686 514.92 409.076 513.57 406.796 511.77C403.376 509.19 401.036 506.07 399.776 502.41L412.376 496.56C412.376 497.16 412.586 497.91 413.006 498.81C413.426 499.71 414.086 500.58 414.986 501.42C415.886 502.26 417.056 502.98 418.496 503.58C419.936 504.18 421.706 504.48 423.806 504.48C425.486 504.48 426.956 504.27 428.216 503.85C429.536 503.43 430.616 502.92 431.456 502.32C432.356 501.66 433.016 500.94 433.436 500.16C433.916 499.32 434.156 498.48 434.156 497.64C434.156 496.68 433.826 495.78 433.166 494.94C432.566 494.1 431.606 493.44 430.286 492.96C427.886 492.12 425.336 491.43 422.636 490.89C419.996 490.29 417.416 489.57 414.896 488.73C412.376 487.83 410.036 486.66 407.876 485.22C405.716 483.78 404.006 481.77 402.746 479.19C401.606 476.91 401.036 474.48 401.036 471.9C401.036 469.02 401.696 466.23 403.016 463.53C404.396 460.83 406.256 458.55 408.596 456.69C410.816 454.95 413.306 453.63 416.066 452.73C418.826 451.77 421.736 451.29 424.796 451.29C427.856 451.29 430.766 451.74 433.526 452.64C436.346 453.54 438.866 454.86 441.086 456.6C443.246 458.22 444.956 460.11 446.216 462.27L435.956 469.29C434.696 467.55 433.106 466.17 431.186 465.15C429.326 464.07 427.226 463.53 424.886 463.53C421.646 463.53 419.126 464.25 417.326 465.69C415.586 467.13 414.716 469.02 414.716 471.36C414.716 472.44 415.196 473.4 416.156 474.24C417.176 475.08 418.466 475.83 420.026 476.49C421.646 477.15 423.446 477.75 425.426 478.29C427.406 478.77 429.356 479.28 431.276 479.82C433.256 480.3 435.116 480.81 436.856 481.35C438.596 481.89 440.006 482.49 441.086 483.15Z" fill="black"/>
<path d="M144.544 561L139.252 548.238H141.286L145.588 558.588L149.89 548.238H151.924L146.632 561H144.544ZM164.766 548.238V549.93H158.844V553.404H164.118V555.15H158.844V559.254H164.766V561H158.844H157.908H156.972V548.238H164.766ZM181.629 548.238V561H179.721L172.593 551.208V561H170.631V548.238H172.611L179.739 558.084V548.238H181.629ZM196.831 556.482C196.831 557.13 196.705 557.742 196.453 558.318C196.213 558.882 195.883 559.38 195.463 559.812C195.043 560.232 194.551 560.568 193.987 560.82C193.423 561.06 192.817 561.18 192.169 561.18C191.521 561.18 190.915 561.06 190.351 560.82C189.787 560.568 189.295 560.232 188.875 559.812C188.455 559.38 188.119 558.882 187.867 558.318C187.627 557.742 187.507 557.13 187.507 556.482V548.238H189.379V556.482C189.379 556.866 189.451 557.232 189.595 557.58C189.739 557.928 189.937 558.24 190.189 558.516C190.441 558.78 190.735 558.99 191.071 559.146C191.419 559.302 191.785 559.38 192.169 559.38C192.553 559.38 192.913 559.302 193.249 559.146C193.585 558.99 193.879 558.78 194.131 558.516C194.383 558.24 194.581 557.928 194.725 557.58C194.869 557.232 194.941 556.866 194.941 556.482V548.238H196.831V556.482ZM210.436 548.238V549.93H204.514V553.404H209.788V555.15H204.514V559.254H210.436V561H204.514H203.578H202.642V548.238H210.436ZM224.594 555.114H229.886V556.302H224.594V555.114ZM249.965 559.434C250.661 559.434 251.303 559.266 251.891 558.93C252.491 558.594 252.995 558.15 253.403 557.598L254.717 558.858C254.141 559.542 253.439 560.1 252.611 560.532C251.795 560.964 250.913 561.18 249.965 561.18C249.101 561.18 248.285 561.006 247.517 560.658C246.749 560.31 246.083 559.842 245.519 559.254C244.955 558.654 244.505 557.958 244.169 557.166C243.845 556.362 243.683 555.516 243.683 554.628C243.683 553.728 243.845 552.882 244.169 552.09C244.505 551.298 244.955 550.608 245.519 550.02C246.083 549.42 246.749 548.946 247.517 548.598C248.285 548.25 249.101 548.076 249.965 548.076C250.769 548.076 251.525 548.238 252.233 548.562C252.953 548.874 253.595 549.288 254.159 549.804L253.043 551.226C252.647 550.806 252.185 550.464 251.657 550.2C251.129 549.924 250.565 549.786 249.965 549.786C249.353 549.786 248.777 549.918 248.237 550.182C247.709 550.434 247.247 550.782 246.851 551.226C246.455 551.67 246.137 552.186 245.897 552.774C245.669 553.35 245.555 553.968 245.555 554.628C245.555 555.288 245.669 555.912 245.897 556.5C246.137 557.076 246.455 557.586 246.851 558.03C247.247 558.462 247.709 558.804 248.237 559.056C248.777 559.308 249.353 559.434 249.965 559.434ZM261.315 561H259.263L264.573 548.238H266.643L271.953 561H269.919L268.245 557.004H262.971L261.315 561ZM263.691 555.276H267.525L265.617 550.668L263.691 555.276ZM279.575 549.93H276.119V548.238H284.921V549.93H281.447V561H279.575V549.93ZM296.233 559.434C296.929 559.434 297.571 559.266 298.159 558.93C298.759 558.594 299.263 558.15 299.671 557.598L300.985 558.858C300.409 559.542 299.707 560.1 298.879 560.532C298.063 560.964 297.181 561.18 296.233 561.18C295.369 561.18 294.553 561.006 293.785 560.658C293.017 560.31 292.351 559.842 291.787 559.254C291.223 558.654 290.773 557.958 290.437 557.166C290.113 556.362 289.951 555.516 289.951 554.628C289.951 553.728 290.113 552.882 290.437 552.09C290.773 551.298 291.223 550.608 291.787 550.02C292.351 549.42 293.017 548.946 293.785 548.598C294.553 548.25 295.369 548.076 296.233 548.076C297.037 548.076 297.793 548.238 298.501 548.562C299.221 548.874 299.863 549.288 300.427 549.804L299.311 551.226C298.915 550.806 298.453 550.464 297.925 550.2C297.397 549.924 296.833 549.786 296.233 549.786C295.621 549.786 295.045 549.918 294.505 550.182C293.977 550.434 293.515 550.782 293.119 551.226C292.723 551.67 292.405 552.186 292.165 552.774C291.937 553.35 291.823 553.968 291.823 554.628C291.823 555.288 291.937 555.912 292.165 556.5C292.405 557.076 292.723 557.586 293.119 558.03C293.515 558.462 293.977 558.804 294.505 559.056C295.045 559.308 295.621 559.434 296.233 559.434ZM315.377 548.238H317.249V561H315.377V555.15H308.231V561H306.341V548.238H308.231V553.404H315.377V548.238ZM334 548.238H335.89V561H334.018V551.208L330.292 556.338H328.834L325.09 551.208V561H323.2V548.238H325.09L329.554 554.376L334 548.238ZM350.366 548.238V549.93H343.634V553.404H349.736V555.15H343.634V561H341.762V548.238H350.366ZM355.317 561V548.238H357.207V559.254H363.111V561H355.317ZM371.727 549.786V559.452H372.663V561H368.901V559.452H369.855V549.786H368.901V548.238H372.663V549.786H371.727ZM385.364 554.142L389.918 561H387.668L384.248 555.852L380.81 561H378.56L383.114 554.142L379.19 548.238H381.44L384.248 552.45L387.038 548.238H389.288L385.364 554.142ZM401.448 554.142L406.002 561H403.752L400.332 555.852L396.894 561H394.644L399.198 554.142L395.274 548.238H397.524L400.332 552.45L403.122 548.238H405.372L401.448 554.142Z" fill="black" fill-opacity="0.7"/>
<path d="M172.76 616.12C172.427 616.12 172.113 616.057 171.82 615.93C171.533 615.797 171.28 615.617 171.06 615.39C170.847 615.163 170.677 614.897 170.55 614.59C170.423 614.283 170.36 613.957 170.36 613.61C170.36 613.263 170.423 612.937 170.55 612.63C170.677 612.323 170.847 612.057 171.06 611.83C171.28 611.603 171.533 611.427 171.82 611.3C172.113 611.167 172.427 611.1 172.76 611.1C173.147 611.1 173.503 611.187 173.83 611.36C174.157 611.533 174.43 611.77 174.65 612.07L173.97 612.6C173.837 612.407 173.667 612.257 173.46 612.15C173.26 612.037 173.043 611.98 172.81 611.98C172.61 611.98 172.42 612.023 172.24 612.11C172.06 612.19 171.903 612.303 171.77 612.45C171.637 612.597 171.53 612.77 171.45 612.97C171.377 613.17 171.34 613.383 171.34 613.61C171.34 613.837 171.377 614.05 171.45 614.25C171.53 614.45 171.637 614.627 171.77 614.78C171.903 614.927 172.06 615.043 172.24 615.13C172.42 615.217 172.61 615.26 172.81 615.26C173.07 615.26 173.307 615.19 173.52 615.05C173.733 614.91 173.907 614.723 174.04 614.49L174.7 615.07C174.487 615.39 174.21 615.647 173.87 615.84C173.53 616.027 173.16 616.12 172.76 616.12ZM182.278 611.21V616H181.458L181.308 615.45C181.141 615.67 180.928 615.837 180.668 615.95C180.408 616.063 180.145 616.12 179.878 616.12C179.545 616.12 179.231 616.057 178.938 615.93C178.651 615.797 178.398 615.617 178.178 615.39C177.965 615.163 177.795 614.897 177.668 614.59C177.541 614.283 177.478 613.957 177.478 613.61C177.478 613.263 177.541 612.937 177.668 612.63C177.795 612.323 177.965 612.057 178.178 611.83C178.398 611.603 178.651 611.427 178.938 611.3C179.231 611.167 179.545 611.1 179.878 611.1C180.145 611.1 180.401 611.153 180.648 611.26C180.895 611.36 181.115 611.52 181.308 611.74L181.458 611.21H182.278ZM179.878 615.26C180.071 615.26 180.255 615.217 180.428 615.13C180.601 615.043 180.751 614.927 180.878 614.78C181.005 614.627 181.105 614.45 181.178 614.25C181.251 614.05 181.288 613.837 181.288 613.61C181.288 613.383 181.251 613.17 181.178 612.97C181.105 612.77 181.005 612.597 180.878 612.45C180.751 612.297 180.601 612.177 180.428 612.09C180.255 612.003 180.071 611.96 179.878 611.96C179.685 611.96 179.501 612.003 179.328 612.09C179.155 612.177 179.005 612.297 178.878 612.45C178.751 612.597 178.651 612.77 178.578 612.97C178.505 613.17 178.468 613.383 178.468 613.61C178.468 613.837 178.505 614.05 178.578 614.25C178.651 614.45 178.751 614.627 178.878 614.78C179.005 614.927 179.155 615.043 179.328 615.13C179.501 615.217 179.685 615.26 179.878 615.26ZM187.965 615.99C187.692 616.083 187.422 616.14 187.155 616.16C186.889 616.18 186.649 616.14 186.435 616.04C186.222 615.947 186.049 615.78 185.915 615.54C185.782 615.293 185.715 614.95 185.715 614.51V612.08H185.015V611.41L185.715 611.21V609.93H186.685V611.21H187.985V612.08H186.685V614.66C186.685 614.82 186.702 614.947 186.735 615.04C186.775 615.133 186.839 615.203 186.925 615.25C187.012 615.297 187.125 615.32 187.265 615.32C187.405 615.32 187.575 615.307 187.775 615.28L187.965 615.99ZM193.083 616.12C192.75 616.12 192.437 616.057 192.143 615.93C191.857 615.797 191.603 615.617 191.383 615.39C191.17 615.163 191 614.897 190.873 614.59C190.747 614.283 190.683 613.957 190.683 613.61C190.683 613.263 190.747 612.937 190.873 612.63C191 612.323 191.17 612.057 191.383 611.83C191.603 611.603 191.857 611.427 192.143 611.3C192.437 611.167 192.75 611.1 193.083 611.1C193.47 611.1 193.827 611.187 194.153 611.36C194.48 611.533 194.753 611.77 194.973 612.07L194.293 612.6C194.16 612.407 193.99 612.257 193.783 612.15C193.583 612.037 193.367 611.98 193.133 611.98C192.933 611.98 192.743 612.023 192.563 612.11C192.383 612.19 192.227 612.303 192.093 612.45C191.96 612.597 191.853 612.77 191.773 612.97C191.7 613.17 191.663 613.383 191.663 613.61C191.663 613.837 191.7 614.05 191.773 614.25C191.853 614.45 191.96 614.627 192.093 614.78C192.227 614.927 192.383 615.043 192.563 615.13C192.743 615.217 192.933 615.26 193.133 615.26C193.393 615.26 193.63 615.19 193.843 615.05C194.057 614.91 194.23 614.723 194.363 614.49L195.023 615.07C194.81 615.39 194.533 615.647 194.193 615.84C193.853 616.027 193.483 616.12 193.083 616.12ZM199.032 616H198.062V608.7H199.032V611.65C199.212 611.45 199.398 611.31 199.592 611.23C199.792 611.143 200.022 611.1 200.282 611.1C200.615 611.1 200.912 611.167 201.172 611.3C201.438 611.427 201.665 611.603 201.852 611.83C202.038 612.057 202.178 612.323 202.272 612.63C202.372 612.937 202.422 613.263 202.422 613.61V616H201.442V613.61C201.442 613.383 201.408 613.17 201.342 612.97C201.282 612.77 201.195 612.597 201.082 612.45C200.975 612.303 200.848 612.19 200.702 612.11C200.562 612.023 200.408 611.98 200.242 611.98C200.102 611.98 199.962 612.01 199.822 612.07C199.682 612.123 199.552 612.213 199.432 612.34C199.318 612.467 199.222 612.633 199.142 612.84C199.068 613.047 199.032 613.297 199.032 613.59V616ZM206.551 616H205.581V611.21H206.351L206.551 611.62C206.671 611.48 206.815 611.36 206.981 611.26C207.148 611.153 207.351 611.1 207.591 611.1C207.685 611.1 207.788 611.113 207.901 611.14C208.021 611.16 208.141 611.2 208.261 611.26C208.388 611.313 208.508 611.39 208.621 611.49C208.735 611.583 208.831 611.707 208.911 611.86C209.025 611.653 209.195 611.477 209.421 611.33C209.655 611.177 209.901 611.1 210.161 611.1C210.335 611.1 210.518 611.127 210.711 611.18C210.905 611.233 211.085 611.333 211.251 611.48C211.418 611.627 211.555 611.83 211.661 612.09C211.768 612.35 211.821 612.687 211.821 613.1V616H210.911V613.09C210.911 612.677 210.825 612.39 210.651 612.23C210.485 612.063 210.261 611.98 209.981 611.98C209.768 611.98 209.581 612.07 209.421 612.25C209.261 612.43 209.181 612.713 209.181 613.1V616H208.271V613.09C208.271 612.677 208.185 612.39 208.011 612.23C207.845 612.063 207.621 611.98 207.341 611.98C207.141 611.98 206.965 612.057 206.811 612.21C206.665 612.363 206.578 612.603 206.551 612.93V616ZM215.494 616V612.08H214.674V611.41L215.494 611.21V610.7C215.501 610.28 215.568 609.94 215.694 609.68C215.828 609.413 215.994 609.207 216.194 609.06C216.401 608.907 216.638 608.803 216.904 608.75C217.171 608.69 217.444 608.66 217.724 608.66C217.951 608.66 218.174 608.673 218.394 608.7C218.621 608.72 218.841 608.747 219.054 608.78V616H218.084V609.49C218.011 609.483 217.938 609.48 217.864 609.48C217.798 609.473 217.728 609.47 217.654 609.47C217.501 609.47 217.354 609.487 217.214 609.52C217.074 609.547 216.948 609.6 216.834 609.68C216.721 609.76 216.631 609.87 216.564 610.01C216.498 610.15 216.464 610.33 216.464 610.55V611.21H217.544V612.08H216.464V616H215.494ZM223.145 616H222.175V611.21H223.135L223.145 616ZM222.655 610.17C222.482 610.17 222.335 610.11 222.215 609.99C222.095 609.863 222.035 609.713 222.035 609.54C222.035 609.367 222.095 609.22 222.215 609.1C222.335 608.98 222.482 608.92 222.655 608.92C222.828 608.92 222.975 608.98 223.095 609.1C223.215 609.22 223.275 609.367 223.275 609.54C223.275 609.713 223.215 609.863 223.095 609.99C222.975 610.11 222.828 610.17 222.655 610.17ZM230.795 616H229.615L228.385 614.32L227.145 616H225.965L227.795 613.52L226.095 611.21H227.275L228.385 612.71L229.485 611.21H230.665L228.975 613.52L230.795 616ZM238.07 616H236.89L235.66 614.32L234.42 616H233.24L235.07 613.52L233.37 611.21H234.55L235.66 612.71L236.76 611.21H237.94L236.25 613.52L238.07 616ZM247.864 616.12C247.517 616.12 247.19 616.057 246.884 615.93C246.584 615.797 246.32 615.617 246.094 615.39C245.867 615.163 245.687 614.897 245.554 614.59C245.427 614.283 245.364 613.957 245.364 613.61C245.364 613.263 245.424 612.937 245.544 612.63C245.67 612.323 245.837 612.057 246.044 611.83C246.257 611.603 246.504 611.427 246.784 611.3C247.064 611.167 247.364 611.1 247.684 611.1C248.01 611.1 248.31 611.157 248.584 611.27C248.864 611.383 249.104 611.56 249.304 611.8C249.51 612.04 249.67 612.347 249.784 612.72C249.897 613.087 249.954 613.527 249.954 614.04H246.394C246.44 614.213 246.514 614.377 246.614 614.53C246.714 614.677 246.83 614.807 246.964 614.92C247.104 615.027 247.257 615.11 247.424 615.17C247.597 615.23 247.777 615.26 247.964 615.26C248.217 615.26 248.45 615.213 248.664 615.12C248.884 615.027 249.07 614.903 249.224 614.75L249.824 615.35C249.59 615.583 249.304 615.77 248.964 615.91C248.63 616.05 248.264 616.12 247.864 616.12ZM247.684 611.98C247.53 611.98 247.384 612.01 247.244 612.07C247.11 612.13 246.984 612.213 246.864 612.32C246.75 612.427 246.65 612.553 246.564 612.7C246.484 612.847 246.424 613.007 246.384 613.18H248.914C248.9 613.02 248.864 612.867 248.804 612.72C248.744 612.573 248.66 612.447 248.554 612.34C248.447 612.227 248.32 612.14 248.174 612.08C248.034 612.013 247.87 611.98 247.684 611.98ZM253.946 616H252.976V611.21H253.746L253.946 611.63C254.106 611.477 254.3 611.35 254.526 611.25C254.753 611.15 255 611.1 255.266 611.1C255.44 611.1 255.636 611.127 255.856 611.18C256.076 611.233 256.28 611.333 256.466 611.48C256.66 611.627 256.82 611.83 256.946 612.09C257.08 612.35 257.146 612.687 257.146 613.1V616H256.226V613.09C256.226 612.883 256.193 612.71 256.126 612.57C256.066 612.423 255.983 612.307 255.876 612.22C255.776 612.133 255.66 612.073 255.526 612.04C255.4 612 255.266 611.98 255.126 611.98C255.02 611.98 254.896 612 254.756 612.04C254.623 612.08 254.496 612.147 254.376 612.24C254.256 612.327 254.153 612.44 254.066 612.58C253.986 612.713 253.946 612.88 253.946 613.08V616ZM263.038 615.99C262.765 616.083 262.495 616.14 262.228 616.16C261.961 616.18 261.721 616.14 261.508 616.04C261.295 615.947 261.121 615.78 260.988 615.54C260.855 615.293 260.788 614.95 260.788 614.51V612.08H260.088V611.41L260.788 611.21V609.93H261.758V611.21H263.058V612.08H261.758V614.66C261.758 614.82 261.775 614.947 261.808 615.04C261.848 615.133 261.911 615.203 261.998 615.25C262.085 615.297 262.198 615.32 262.338 615.32C262.478 615.32 262.648 615.307 262.848 615.28L263.038 615.99ZM268.226 616.12C267.879 616.12 267.553 616.057 267.246 615.93C266.946 615.797 266.683 615.617 266.456 615.39C266.229 615.163 266.049 614.897 265.916 614.59C265.789 614.283 265.726 613.957 265.726 613.61C265.726 613.263 265.786 612.937 265.906 612.63C266.033 612.323 266.199 612.057 266.406 611.83C266.619 611.603 266.866 611.427 267.146 611.3C267.426 611.167 267.726 611.1 268.046 611.1C268.373 611.1 268.673 611.157 268.946 611.27C269.226 611.383 269.466 611.56 269.666 611.8C269.873 612.04 270.033 612.347 270.146 612.72C270.259 613.087 270.316 613.527 270.316 614.04H266.756C266.803 614.213 266.876 614.377 266.976 614.53C267.076 614.677 267.193 614.807 267.326 614.92C267.466 615.027 267.619 615.11 267.786 615.17C267.959 615.23 268.139 615.26 268.326 615.26C268.579 615.26 268.813 615.213 269.026 615.12C269.246 615.027 269.433 614.903 269.586 614.75L270.186 615.35C269.953 615.583 269.666 615.77 269.326 615.91C268.993 616.05 268.626 616.12 268.226 616.12ZM268.046 611.98C267.893 611.98 267.746 612.01 267.606 612.07C267.473 612.13 267.346 612.213 267.226 612.32C267.113 612.427 267.013 612.553 266.926 612.7C266.846 612.847 266.786 613.007 266.746 613.18H269.276C269.263 613.02 269.226 612.867 269.166 612.72C269.106 612.573 269.023 612.447 268.916 612.34C268.809 612.227 268.683 612.14 268.536 612.08C268.396 612.013 268.233 611.98 268.046 611.98ZM276.249 612.1C276.202 612.08 276.156 612.06 276.109 612.04C276.069 612.027 276.022 612.013 275.969 612C275.916 611.987 275.859 611.98 275.799 611.98C275.606 611.98 275.426 612.013 275.259 612.08C275.092 612.14 274.949 612.223 274.829 612.33C274.709 612.437 274.612 612.563 274.539 612.71C274.472 612.85 274.439 613 274.439 613.16L274.429 616H273.459V611.21H274.229L274.429 611.74C274.562 611.547 274.736 611.393 274.949 611.28C275.169 611.16 275.442 611.1 275.769 611.1C275.982 611.1 276.226 611.13 276.499 611.19L276.249 612.1ZM281.838 615.99C281.565 616.083 281.295 616.14 281.028 616.16C280.761 616.18 280.521 616.14 280.308 616.04C280.095 615.947 279.921 615.78 279.788 615.54C279.655 615.293 279.588 614.95 279.588 614.51V612.08H278.888V611.41L279.588 611.21V609.93H280.558V611.21H281.858V612.08H280.558V614.66C280.558 614.82 280.575 614.947 280.608 615.04C280.648 615.133 280.711 615.203 280.798 615.25C280.885 615.297 280.998 615.32 281.138 615.32C281.278 615.32 281.448 615.307 281.648 615.28L281.838 615.99ZM289.296 611.21V616H288.476L288.326 615.45C288.159 615.67 287.946 615.837 287.686 615.95C287.426 616.063 287.163 616.12 286.896 616.12C286.563 616.12 286.249 616.057 285.956 615.93C285.669 615.797 285.416 615.617 285.196 615.39C284.983 615.163 284.813 614.897 284.686 614.59C284.559 614.283 284.496 613.957 284.496 613.61C284.496 613.263 284.559 612.937 284.686 612.63C284.813 612.323 284.983 612.057 285.196 611.83C285.416 611.603 285.669 611.427 285.956 611.3C286.249 611.167 286.563 611.1 286.896 611.1C287.163 611.1 287.419 611.153 287.666 611.26C287.913 611.36 288.133 611.52 288.326 611.74L288.476 611.21H289.296ZM286.896 615.26C287.089 615.26 287.273 615.217 287.446 615.13C287.619 615.043 287.769 614.927 287.896 614.78C288.023 614.627 288.123 614.45 288.196 614.25C288.269 614.05 288.306 613.837 288.306 613.61C288.306 613.383 288.269 613.17 288.196 612.97C288.123 612.77 288.023 612.597 287.896 612.45C287.769 612.297 287.619 612.177 287.446 612.09C287.273 612.003 287.089 611.96 286.896 611.96C286.703 611.96 286.519 612.003 286.346 612.09C286.173 612.177 286.023 612.297 285.896 612.45C285.769 612.597 285.669 612.77 285.596 612.97C285.523 613.17 285.486 613.383 285.486 613.61C285.486 613.837 285.523 614.05 285.596 614.25C285.669 614.45 285.769 614.627 285.896 614.78C286.023 614.927 286.173 615.043 286.346 615.13C286.519 615.217 286.703 615.26 286.896 615.26ZM293.393 616H292.423V611.21H293.383L293.393 616ZM292.903 610.17C292.73 610.17 292.583 610.11 292.463 609.99C292.343 609.863 292.283 609.713 292.283 609.54C292.283 609.367 292.343 609.22 292.463 609.1C292.583 608.98 292.73 608.92 292.903 608.92C293.077 608.92 293.223 608.98 293.343 609.1C293.463 609.22 293.523 609.367 293.523 609.54C293.523 609.713 293.463 609.863 293.343 609.99C293.223 610.11 293.077 610.17 292.903 610.17ZM297.533 616H296.563V611.21H297.333L297.533 611.63C297.693 611.477 297.886 611.35 298.113 611.25C298.34 611.15 298.586 611.1 298.853 611.1C299.026 611.1 299.223 611.127 299.443 611.18C299.663 611.233 299.866 611.333 300.053 611.48C300.246 611.627 300.406 611.83 300.533 612.09C300.666 612.35 300.733 612.687 300.733 613.1V616H299.813V613.09C299.813 612.883 299.78 612.71 299.713 612.57C299.653 612.423 299.57 612.307 299.463 612.22C299.363 612.133 299.246 612.073 299.113 612.04C298.986 612 298.853 611.98 298.713 611.98C298.606 611.98 298.483 612 298.343 612.04C298.21 612.08 298.083 612.147 297.963 612.24C297.843 612.327 297.74 612.44 297.653 612.58C297.573 612.713 297.533 612.88 297.533 613.08V616ZM304.995 616H304.025V611.21H304.795L304.995 611.62C305.115 611.48 305.258 611.36 305.425 611.26C305.592 611.153 305.795 611.1 306.035 611.1C306.128 611.1 306.232 611.113 306.345 611.14C306.465 611.16 306.585 611.2 306.705 611.26C306.832 611.313 306.952 611.39 307.065 611.49C307.178 611.583 307.275 611.707 307.355 611.86C307.468 611.653 307.638 611.477 307.865 611.33C308.098 611.177 308.345 611.1 308.605 611.1C308.778 611.1 308.962 611.127 309.155 611.18C309.348 611.233 309.528 611.333 309.695 611.48C309.862 611.627 309.998 611.83 310.105 612.09C310.212 612.35 310.265 612.687 310.265 613.1V616H309.355V613.09C309.355 612.677 309.268 612.39 309.095 612.23C308.928 612.063 308.705 611.98 308.425 611.98C308.212 611.98 308.025 612.07 307.865 612.25C307.705 612.43 307.625 612.713 307.625 613.1V616H306.715V613.09C306.715 612.677 306.628 612.39 306.455 612.23C306.288 612.063 306.065 611.98 305.785 611.98C305.585 611.98 305.408 612.057 305.255 612.21C305.108 612.363 305.022 612.603 304.995 612.93V616ZM315.778 616.12C315.431 616.12 315.104 616.057 314.798 615.93C314.498 615.797 314.234 615.617 314.008 615.39C313.781 615.163 313.601 614.897 313.468 614.59C313.341 614.283 313.278 613.957 313.278 613.61C313.278 613.263 313.338 612.937 313.458 612.63C313.584 612.323 313.751 612.057 313.958 611.83C314.171 611.603 314.418 611.427 314.698 611.3C314.978 611.167 315.278 611.1 315.598 611.1C315.924 611.1 316.224 611.157 316.498 611.27C316.778 611.383 317.018 611.56 317.218 611.8C317.424 612.04 317.584 612.347 317.698 612.72C317.811 613.087 317.868 613.527 317.868 614.04H314.308C314.354 614.213 314.428 614.377 314.528 614.53C314.628 614.677 314.744 614.807 314.878 614.92C315.018 615.027 315.171 615.11 315.338 615.17C315.511 615.23 315.691 615.26 315.878 615.26C316.131 615.26 316.364 615.213 316.578 615.12C316.798 615.027 316.984 614.903 317.138 614.75L317.738 615.35C317.504 615.583 317.218 615.77 316.878 615.91C316.544 616.05 316.178 616.12 315.778 616.12ZM315.598 611.98C315.444 611.98 315.298 612.01 315.158 612.07C315.024 612.13 314.898 612.213 314.778 612.32C314.664 612.427 314.564 612.553 314.478 612.7C314.398 612.847 314.338 613.007 314.298 613.18H316.828C316.814 613.02 316.778 612.867 316.718 612.72C316.658 612.573 316.574 612.447 316.468 612.34C316.361 612.227 316.234 612.14 316.088 612.08C315.948 612.013 315.784 611.98 315.598 611.98ZM321.86 616H320.89V611.21H321.66L321.86 611.63C322.02 611.477 322.214 611.35 322.44 611.25C322.667 611.15 322.914 611.1 323.18 611.1C323.354 611.1 323.55 611.127 323.77 611.18C323.99 611.233 324.194 611.333 324.38 611.48C324.574 611.627 324.734 611.83 324.86 612.09C324.994 612.35 325.06 612.687 325.06 613.1V616H324.14V613.09C324.14 612.883 324.107 612.71 324.04 612.57C323.98 612.423 323.897 612.307 323.79 612.22C323.69 612.133 323.574 612.073 323.44 612.04C323.314 612 323.18 611.98 323.04 611.98C322.934 611.98 322.81 612 322.67 612.04C322.537 612.08 322.41 612.147 322.29 612.24C322.17 612.327 322.067 612.44 321.98 612.58C321.9 612.713 321.86 612.88 321.86 613.08V616ZM330.952 615.99C330.679 616.083 330.409 616.14 330.142 616.16C329.876 616.18 329.636 616.14 329.422 616.04C329.209 615.947 329.036 615.78 328.902 615.54C328.769 615.293 328.702 614.95 328.702 614.51V612.08H328.002V611.41L328.702 611.21V609.93H329.672V611.21H330.972V612.08H329.672V614.66C329.672 614.82 329.689 614.947 329.722 615.04C329.762 615.133 329.826 615.203 329.912 615.25C329.999 615.297 330.112 615.32 330.252 615.32C330.392 615.32 330.562 615.307 330.762 615.28L330.952 615.99ZM338.578 617.98V611.21H339.348L339.548 611.71C339.741 611.517 339.961 611.367 340.208 611.26C340.461 611.153 340.744 611.1 341.058 611.1C341.391 611.1 341.698 611.167 341.978 611.3C342.264 611.427 342.511 611.603 342.718 611.83C342.924 612.057 343.084 612.323 343.198 612.63C343.318 612.937 343.378 613.263 343.378 613.61C343.378 613.957 343.318 614.283 343.198 614.59C343.084 614.897 342.924 615.163 342.718 615.39C342.511 615.617 342.264 615.797 341.978 615.93C341.698 616.057 341.391 616.12 341.058 616.12C340.731 616.12 340.444 616.067 340.198 615.96C339.951 615.847 339.734 615.687 339.548 615.48V617.98H338.578ZM340.978 611.98C340.784 611.98 340.601 612.013 340.428 612.08C340.254 612.14 340.101 612.24 339.968 612.38C339.841 612.513 339.741 612.683 339.668 612.89C339.594 613.09 339.558 613.33 339.558 613.61C339.558 613.91 339.594 614.167 339.668 614.38C339.741 614.587 339.841 614.757 339.968 614.89C340.101 615.017 340.254 615.11 340.428 615.17C340.601 615.23 340.784 615.26 340.978 615.26C341.171 615.26 341.354 615.217 341.528 615.13C341.701 615.043 341.851 614.927 341.978 614.78C342.104 614.627 342.204 614.45 342.278 614.25C342.351 614.05 342.388 613.837 342.388 613.61C342.388 613.383 342.351 613.17 342.278 612.97C342.204 612.77 342.104 612.597 341.978 612.45C341.851 612.303 341.701 612.19 341.528 612.11C341.354 612.023 341.171 611.98 340.978 611.98ZM349.152 616H347.862L345.882 611.21H346.932L348.512 615.02L350.092 611.21H351.142L349.152 616ZM356.54 615.99C356.266 616.083 355.996 616.14 355.73 616.16C355.463 616.18 355.223 616.14 355.01 616.04C354.796 615.947 354.623 615.78 354.49 615.54C354.356 615.293 354.29 614.95 354.29 614.51V612.08H353.59V611.41L354.29 611.21V609.93H355.26V611.21H356.56V612.08H355.26V614.66C355.26 614.82 355.276 614.947 355.31 615.04C355.35 615.133 355.413 615.203 355.5 615.25C355.586 615.297 355.7 615.32 355.84 615.32C355.98 615.32 356.15 615.307 356.35 615.28L356.54 615.99ZM365.185 608.7V616H364.215V608.7H365.185ZM370.984 615.99C370.711 616.083 370.441 616.14 370.174 616.16C369.908 616.18 369.668 616.14 369.454 616.04C369.241 615.947 369.068 615.78 368.934 615.54C368.801 615.293 368.734 614.95 368.734 614.51V612.08H368.034V611.41L368.734 611.21V609.93H369.704V611.21H371.004V612.08H369.704V614.66C369.704 614.82 369.721 614.947 369.754 615.04C369.794 615.133 369.858 615.203 369.944 615.25C370.031 615.297 370.144 615.32 370.284 615.32C370.424 615.32 370.594 615.307 370.794 615.28L370.984 615.99ZM378.482 608.7V616H377.712L377.512 615.5C377.319 615.693 377.099 615.847 376.852 615.96C376.606 616.067 376.322 616.12 376.002 616.12C375.669 616.12 375.362 616.057 375.082 615.93C374.802 615.797 374.559 615.617 374.352 615.39C374.146 615.163 373.982 614.897 373.862 614.59C373.749 614.283 373.692 613.957 373.692 613.61C373.692 613.263 373.749 612.937 373.862 612.63C373.982 612.323 374.146 612.057 374.352 611.83C374.559 611.603 374.802 611.427 375.082 611.3C375.362 611.167 375.669 611.1 376.002 611.1C376.336 611.1 376.626 611.157 376.872 611.27C377.119 611.377 377.332 611.53 377.512 611.73V608.7H378.482ZM376.082 615.26C376.282 615.26 376.466 615.227 376.632 615.16C376.806 615.093 376.956 614.993 377.082 614.86C377.216 614.72 377.319 614.547 377.392 614.34C377.466 614.133 377.502 613.89 377.502 613.61C377.502 613.31 377.466 613.057 377.392 612.85C377.319 612.643 377.216 612.477 377.082 612.35C376.956 612.217 376.806 612.123 376.632 612.07C376.466 612.01 376.282 611.98 376.082 611.98C375.889 611.98 375.706 612.023 375.532 612.11C375.359 612.19 375.209 612.303 375.082 612.45C374.956 612.597 374.856 612.77 374.782 612.97C374.709 613.17 374.672 613.383 374.672 613.61C374.672 613.837 374.709 614.05 374.782 614.25C374.856 614.45 374.956 614.627 375.082 614.78C375.209 614.927 375.359 615.043 375.532 615.13C375.706 615.217 375.889 615.26 376.082 615.26Z" fill="black"/>
</svg>
