<svg width="255" height="51" viewBox="0 0 255 51" fill="none" xmlns="http://www.w3.org/2000/svg">
<path d="M14.934 40.57C7.182 40.57 1.064 34.338 1.064 26.32C1.064 18.34 7.182 12.146 14.934 12.146C22.42 12.146 28.196 17.124 29.07 24.344H21.47C20.9 20.924 18.354 18.568 15.01 18.568C10.982 18.568 8.436 21.684 8.436 26.32C8.436 30.994 10.982 34.148 15.01 34.148C18.316 34.148 20.862 31.792 21.47 28.334H29.07C28.158 35.63 22.42 40.57 14.934 40.57ZM44.2308 40V38.024C42.7868 39.658 41.0008 40.38 38.3788 40.38C34.1228 40.38 31.2728 37.834 31.2728 33.958C31.2728 29.968 34.5028 27.802 40.3548 27.802C41.4568 27.802 42.4828 27.878 43.3568 28.03V27.042C43.3568 25.256 42.3308 24.268 40.5068 24.268C38.7208 24.268 37.6568 25.256 37.4288 27.042H31.5768C31.9568 22.292 35.4908 19.176 40.5448 19.176C46.1688 19.176 49.4748 22.216 49.4748 27.384V40H44.2308ZM37.3908 33.768C37.3908 35.098 38.3028 35.896 39.8988 35.896C42.0648 35.896 43.3568 34.87 43.3568 33.198V31.906C42.3688 31.716 41.6088 31.64 40.7728 31.64C38.5688 31.64 37.3908 32.362 37.3908 33.768ZM66.8714 33.616V39.278C65.4274 40.076 64.0594 40.38 62.2354 40.38C57.6374 40.38 54.9394 37.644 54.9394 32.97V25.218H51.1394V19.556H54.9394V13.552H61.4374V19.556H67.0234V25.218H61.4374V31.45C61.4374 33.426 62.2734 34.338 64.0594 34.338C65.1234 34.338 66.1494 34.072 66.8714 33.616ZM78.5617 40.38C72.4817 40.38 68.2637 36.01 68.2637 29.778C68.2637 23.698 72.6717 19.176 78.5617 19.176C84.1857 19.176 88.3657 22.976 88.9357 28.676H82.0197C81.9057 26.434 80.5757 25.028 78.5997 25.028C76.3197 25.028 74.9897 26.776 74.9897 29.778C74.9897 32.856 76.2817 34.566 78.5997 34.566C80.6137 34.566 81.8677 33.198 82.0197 30.88H88.9357C88.3657 36.732 84.3757 40.38 78.5617 40.38ZM98.3936 29.246V40H91.8956V12.716H98.3936V21.76C99.8756 20.164 101.358 19.176 103.942 19.176C107.97 19.176 110.82 21.874 110.82 26.852V40H104.322V29.018C104.322 26.434 103.41 25.028 101.434 25.028C99.8376 25.028 98.3936 26.168 98.3936 29.246ZM174.496 40H167.314V12.716H185.896V18.948H174.496V24.002H184.034V30.234H174.496V40ZM195.733 40H189.159V12.716H195.733V40ZM207.367 14.806C207.367 16.934 205.657 18.492 203.187 18.492C200.717 18.492 199.007 16.934 199.007 14.806C199.007 12.64 200.717 11.082 203.187 11.082C205.657 11.082 207.367 12.64 207.367 14.806ZM206.493 40H199.995V19.556H206.493V40ZM216.381 40H209.085L215.697 29.626L209.541 19.556H217.103L220.523 26.054L223.943 19.556H230.821L224.779 29.892L231.315 40H223.905L220.067 33.312L216.381 40ZM239.537 40H232.241L238.853 29.626L232.697 19.556H240.259L243.679 26.054L247.099 19.556H253.977L247.935 29.892L254.471 40H247.061L243.223 33.312L239.537 40Z" fill="white"/>
<path d="M135.727 40L129.875 24.268V40H123.377V12.716H131.851L138.729 31.222L145.569 12.716H154.043V40H147.545V24.078L141.655 40H135.727Z" fill="#316FF6"/>
<circle cx="203.5" cy="14.5" r="4.5" fill="#316FF6"/>
</svg>
